<?xml version="1.0" encoding="UTF-8"?>
<svg width="123px" height="20px" viewBox="0 0 123 20" version="1.1" xmlns="http://www.w3.org/2000/svg" xmlns:xlink="http://www.w3.org/1999/xlink">
    <!-- Generator: Sketch 63.1 (92452) - https://sketch.com -->
    <title>VESUVIO</title>
    <desc>Created with Sketch.</desc>
    <g id="Page-1" stroke="none" stroke-width="1" fill="none" fill-rule="evenodd">
        <g id="Desktop" transform="translate(-119.000000, -49.000000)" fill="#FFFFFF" fill-rule="nonzero">
            <path d="M125.972,68 L129.136,49.296 L126.056,49.296 L125.132,56.968 C124.824,59.516 124.404,62.204 124.236,64.22 L124.18,64.22 C124.012,62.064 123.592,59.432 123.284,56.912 L122.276,49.296 L119.168,49.296 L122.444,68 L125.972,68 Z M147.037333,68 L147.401333,65.34 L142.641333,65.34 L142.641333,59.46 L146.757333,59.46 L146.757333,56.8 L142.641333,56.8 L142.641333,51.984 L146.981333,51.984 L146.981333,49.296 L139.757333,49.296 L139.757333,68 L147.037333,68 Z M162.054667,68.28 C165.554667,68.28 166.478667,65.76 166.478667,63.1 C166.478667,59.964 165.610667,58.788 162.810667,56.716 C161.158667,55.512 160.906667,54.868 160.906667,53.524 C160.906667,52.292 161.158667,51.48 162.110667,51.48 C163.062667,51.48 163.286667,52.264 163.286667,53.58 L163.286667,54.504 L166.142667,54.504 L166.142667,53.496 C166.142667,51.452 165.610667,48.988 162.166667,48.988 C158.778667,48.988 158.022667,51.48 158.022667,53.944 C158.022667,56.716 159.114667,57.724 161.130667,59.32 C163.118667,60.916 163.566667,61.532 163.566667,63.548 C163.566667,64.752 163.258667,65.816 162.138667,65.816 C161.046667,65.816 160.626667,65.032 160.626667,63.66 L160.626667,62.484 L157.742667,62.484 L157.742667,63.604 C157.742667,66.068 158.582667,68.28 162.054667,68.28 Z M181.888,68.28 C185.024,68.28 186.34,66.432 186.34,63.464 L186.34,49.296 L183.456,49.296 L183.456,63.52 C183.456,64.78 183.092,65.676 181.944,65.676 C180.824,65.676 180.376,64.892 180.376,63.52 L180.376,49.296 L177.492,49.296 L177.492,63.464 C177.492,66.656 178.92,68.28 181.888,68.28 Z M203.821333,68 L206.985333,49.296 L203.905333,49.296 L202.981333,56.968 C202.673333,59.516 202.253333,62.204 202.085333,64.22 L202.029333,64.22 C201.861333,62.064 201.441333,59.432 201.133333,56.912 L200.125333,49.296 L197.017333,49.296 L200.293333,68 L203.821333,68 Z M220.518667,68 L220.518667,49.296 L217.634667,49.296 L217.634667,68 L220.518667,68 Z M236.404,68.28 C239.596,68.28 241.108,66.572 241.108,62.988 L241.108,54.252 C241.108,50.668 239.428,49.016 236.6,49.016 C233.8,49.016 232.008,50.668 232.008,54.252 L232.008,63.044 C232.008,66.544 233.38,68.28 236.404,68.28 Z M236.544,65.676 C235.508,65.676 234.948,64.948 234.948,63.38 L234.948,53.972 C234.948,52.404 235.508,51.648 236.544,51.648 C237.72,51.648 238.168,52.46 238.168,53.944 L238.168,63.352 C238.168,64.976 237.664,65.676 236.544,65.676 Z" id="VESUVIO"></path>
        </g>
    </g>
</svg>